<?xml version="1.0" encoding="UTF-8"?>
<svg xmlns="http://www.w3.org/2000/svg" width="1200" height="900" viewBox="0 0 1200 900" role="img" aria-label="ケーキのイメージ">
  <defs>
    <linearGradient id="g" x1="0" y1="0" x2="1" y2="1">
      <stop offset="0" stop-color="#ffe3ea" />
      <stop offset="1" stop-color="#ffd2df" />
    </linearGradient>
  </defs>
  <rect width="1200" height="900" rx="40" fill="url(#g)" />
  <!-- Simple cake icon -->
  <g transform="translate(300,240)">
    <rect x="60" y="240" width="480" height="160" rx="20" fill="#fff" stroke="#f3b7c6" stroke-width="6"/>
    <rect x="90" y="180" width="420" height="80" rx="16" fill="#ffe6ee" stroke="#f3b7c6" stroke-width="6"/>
    <path d="M90,180 q30,40 60,0 q30,40 60,0 q30,40 60,0 q30,40 60,0 q30,40 60,0 q30,40 60,0" fill="#ffd5e3" stroke="#f3b7c6" stroke-width="6"/>
    <circle cx="150" cy="150" r="20" fill="#e85d75"/>
    <circle cx="240" cy="150" r="20" fill="#e85d75"/>
    <circle cx="330" cy="150" r="20" fill="#e85d75"/>
    <circle cx="420" cy="150" r="20" fill="#e85d75"/>
  </g>
  <text x="50%" y="85%" text-anchor="middle" font-family="system-ui, -apple-system, &quot;Segoe UI&quot;, Roboto, &quot;Noto Sans JP&quot;, sans-serif" font-size="48" fill="#d4576d" opacity="0.8">ケーキ屋サンプルHP</text>
</svg>
